                           =!DK GROUP HD BLURAY RELEAESEES!=

===================================================================================


 	
    Mission Impossible-3(2006)1920*1080p BDRip In[Hindi-Eng]6CH.AC3 By !!!dip



===================================================================================

Storyline:

Super-spy Ethan Hunt has retired from active duty to trains new IMF agents. But he is called back into action to confront the toughest villain he's ever faced - Owen Davian, an international weapons and information provider with no remorse and no conscience. Hunt assembles his team: his old friend Luther Strickell, transportation expert Declan, and background operative Zhen. They are to rescue one of his very own trainees, Lindsey who was kidnapped while on a surveillance detail of Davian. It soon becomes evident that Davian is well-protected, well-connected, and downright malicious. This forces Hunt to extend his journey back into the field in order to rescue his wife, Julia, and uncover IMF double agents in the process. Written by Anonymous


Cast:

Tom Cruise...............Ethan Hunt
Philip Seymour Hoffman...Owen Davian
Ving Rhames..............Luther Stickell
Billy Crudup.............John Musgrave
Michelle Monaghan........Julia
Jonathan Rhys Meyers.....Declan Gormley
Keri Russell.............Lindsey Farris
Maggie Q.................Zhen Lei
Simon Pegg...............Benji Dunn
Eddie Marsan.............Brownway
Laurence Fishburne.......Theodore Brassel
Bahar Soomekh............Davian's Translator
Jeff Chase...............Davian's Bodyguard
Michael Berry Jr.........Julia's Kidnapper
Carla Gallo..............Beth



Directors :J.J. Abrams
Writers :Alex Kurtzman, Roberto Orci
Stars: Tom Cruise, Michelle Monaghan and Ving Rhames
Genre: Action | Adventure | Thriller
Language: English-Hindi
Format : Color, Dubbed,Widescreen
Release Date :16 June 2006 (India)
Run Time : 02H:00M:16S
Encoder: Deep Shikha



Video Specifications:



Video

ID : 1
Format : AVC
Format/Info : Advanced Video Codec
Format profile : High@L4.0
Format settings, CABAC : Yes
Format settings, ReFrames : 3 frames
Muxing mode : Header stripping
Codec ID : V_MPEG4/ISO/AVC
Duration : 2h 0mn
Bit rate mode : Variable
Bit rate : 3 860 Kbps
Maximum bit rate : 25.0 Mbps
Width : 1 920 pixels
Height : 1 080 pixels
Display aspect ratio : 16:9
Frame rate : 25.000 fps
Original frame rate : 23.976 fps
Color space : YUV
Chroma subsampling : 4:2:0
Bit depth : 8 bits
Scan type : Progressive
Bits/(Pixel*Frame) : 0.074
Stream size : 3.33 GiB (88%)
Title : !!!dip
Team : DK Group HD Bluray Releases




Audio Specifications:

Audio
ID : 2
Format : AC-3
Format/Info : Audio Coding 3
Mode extension : CM (complete main)
Muxing mode : Header stripping
Codec ID : A_AC3
Duration : 2h 0mn
Bit rate mode : Constant
Bit rate : 448 Kbps
Channel(s) : 6 channels
Channel positions : Front: L C R, Side: L R, LFE
Sampling rate : 48.0 KHz
Bit depth : 16 bits
Compression mode : Lossy
Stream size : 385 MiB (10%)
Title : !!!dip
Language : English

Audio
ID : 3
Format : AC-3
Format/Info : Audio Coding 3
Mode extension : CM (complete main)
Muxing mode : Header stripping
Codec ID : A_AC3
Duration : 2h 0mn
Bit rate mode : Constant
Bit rate : 448 Kbps
Channel(s) : 6 channels
Channel positions : Front: L C R, Side: L R, LFE
Sampling rate : 48.0 KHz
Bit depth : 16 bits
Compression mode : Lossy
Stream size : 385 MiB (100%)
Title : !!!dip
Language : Hindi



Text
ID : 4
Format : UTF-8
Codec ID : S_TEXT/UTF8
Codec ID/Info : UTF-8 Plain Text
Title : !!!dip
Language : English



SAMPLE IMAGE:
 
http://www.pix2links.com/images/36849013894022782128.jpg
 
http://www.pix2links.com/images/85110420608966774168.jpg
 
http://www.pix2links.com/images/06612763608883193737.jpg
 
http://www.pix2links.com/images/23693381349861455447.jpg
 
http://www.pix2links.com/images/22042060451323920051.jpg
 
http://www.pix2links.com/images/28411211988714505697.jpg


VIDEO SAMPLE IS AVAILABLE			